# xmcd CD database file
#
# Track frame offsets:
#	150
#	13690
#	28071
#	40490
#	53776
#	65898
#	77085
#	90884
#	102803
#	117158
#	129052
#	142819
#	154957
#	177837
#	193348
#	205005
#	217728
#	229543
#	243055
#	257372
#	271411
#	283438
#	296580
#	309951
#
# Disc length: 4300 seconds
#
# Revision: 0
# Processed by: cddbd v1.5.2PL0 Copyright (c) Steve Scherf et al.
# Submitted via: CDex 1.51
#
DISCID=4810ca18
DTITLE=no arist - Black Blues Box 9
DYEAR=1900
DGENRE=Blues
TTITLE0=B. B. King - Three O´clock Blues
TTITLE1=Big Bill Broonzy - Rising Sun Shine On
TTITLE2=John Lee Williamson - Check Up On My Baby Blues
TTITLE3=John Lee Hooker - Women And Money
TTITLE4=Brother George and His Sanctified Singers - Twelve Gates To The City
TTITLE5=John Lee Hooker - Boom Boom
TTITLE6=Arthur Big Boy Crudup - That´s Why I´m Lonesome
TTITLE7=Lightnin´ Hopkins - West Cost Blues
TTITLE8=Muddy Waters - Burr Clover Blues
TTITLE9=John Lee Hooker - Strike Blues
TTITLE10=Leadbelly - Fort Worth And Dallas Blues
TTITLE11=B. B. King - Miss Martha King
TTITLE12=John Lee Hooker - Baby Don´t Do Me Wrong
TTITLE13=Bessie Smith - Down Hearted Blues
TTITLE14=Brownie Mc Ghee - Dealing With The Devil
TTITLE15=John Lee Hooker - Everybody´s Blues
TTITLE16=Little Brother Montgomery - Shreveport Blues
TTITLE17=Big Joe Turner - Goin´ To Chicago Blues
TTITLE18=Bessie Smith - St. Louis Blues
TTITLE19=John Lee Hooker - Sally Mae
TTITLE20=Big Joe Turner - Playboy Blues
TTITLE21=Leroy Carr - Mean Mistreater Mama
TTITLE22=Big Bill Broonzy - Big Billy Blues
TTITLE23=Sleepy John Estes - New Someday Baby
EXTD=
EXTT0=
EXTT1=
EXTT2=
EXTT3=
EXTT4=
EXTT5=
EXTT6=
EXTT7=
EXTT8=
EXTT9=
EXTT10=
EXTT11=
EXTT12=
EXTT13=
EXTT14=
EXTT15=
EXTT16=
EXTT17=
EXTT18=
EXTT19=
EXTT20=
EXTT21=
EXTT22=
EXTT23=
PLAYORDER=
